<svg xmlns="http://www.w3.org/2000/svg" xmlns:xlink="http://www.w3.org/1999/xlink" width="700" zoomAndPan="magnify" viewBox="0 0 525 112.499997" height="150" preserveAspectRatio="xMidYMid meet" version="1.0"><defs><g/><clipPath id="5356b8c853"><path d="M 12.363281 63 L 138 63 L 138 112 L 12.363281 112 Z M 12.363281 63 " clip-rule="nonzero"/></clipPath></defs><g fill="#435ebe" fill-opacity="1"><g transform="translate(223.167836, 77.761109)"><g><path d="M 26.839844 -42.917969 C 24.648438 -43.167969 23.648438 -43.167969 21.335938 -43.167969 L 5.003906 -43.167969 L 5.003906 0 L 21.335938 0 C 23.648438 0 24.648438 0 26.839844 -0.25 C 36.851562 -1.375 45.109375 -8.632812 45.109375 -22.148438 C 45.109375 -35.660156 36.851562 -41.792969 26.839844 -42.917969 Z M 23.835938 -8.882812 C 22.398438 -8.757812 21.398438 -8.757812 19.769531 -8.757812 L 16.265625 -8.757812 L 16.265625 -34.410156 L 19.769531 -34.410156 C 21.398438 -34.410156 22.398438 -34.410156 23.835938 -34.285156 C 29.46875 -33.785156 33.347656 -29.65625 33.347656 -21.960938 C 33.347656 -14.265625 29.46875 -9.382812 23.835938 -8.882812 Z M 23.835938 -8.882812 "/></g></g></g><g fill="#435ebe" fill-opacity="1"><g transform="translate(270.01177, 77.761109)"><g><path d="M 29.28125 -11.199219 L 32.910156 0 L 45.171875 0 L 29.59375 -43.167969 L 15.828125 -43.167969 L 0.25 0 L 12.199219 0 L 15.828125 -11.199219 Z M 22.585938 -33.222656 L 26.589844 -19.957031 L 18.582031 -19.957031 Z M 22.585938 -33.222656 "/></g></g></g><g fill="#435ebe" fill-opacity="1"><g transform="translate(314.228925, 77.761109)"><g><path d="M 38.664062 -10.511719 C 38.039062 -15.703125 36.414062 -19.019531 31.90625 -20.644531 C 37.664062 -22.335938 40.605469 -25.964844 40.605469 -31.40625 C 40.605469 -39.039062 35.160156 -42.105469 28.90625 -42.855469 C 26.589844 -43.105469 24.835938 -43.167969 22.148438 -43.167969 L 5.003906 -43.167969 L 5.003906 0 L 16.265625 0 L 16.265625 -16.390625 L 18.769531 -16.390625 C 20.019531 -16.390625 21.085938 -16.390625 22.335938 -16.328125 C 25.214844 -16.140625 27.089844 -13.386719 27.652344 -8.632812 C 28.027344 -5.566406 28.652344 -3.066406 29.65625 0 L 41.917969 0 C 40.230469 -2.566406 39.226562 -5.628906 38.664062 -10.511719 Z M 16.265625 -24.523438 L 16.265625 -34.410156 L 20.644531 -34.410156 C 21.835938 -34.410156 22.835938 -34.410156 23.648438 -34.347656 C 26.527344 -34.097656 28.84375 -33.097656 28.84375 -29.46875 C 28.84375 -25.839844 26.214844 -24.835938 23.335938 -24.585938 C 22.523438 -24.523438 21.523438 -24.523438 20.332031 -24.523438 Z M 16.265625 -24.523438 "/></g></g></g><g fill="#435ebe" fill-opacity="1"><g transform="translate(356.882562, 77.761109)"><g><path d="M 27.339844 -16.515625 L 42.542969 -43.167969 L 30.21875 -43.167969 L 22.023438 -26.089844 L 13.515625 -43.167969 L 0.875 -43.167969 L 16.078125 -16.515625 L 16.078125 0 L 27.339844 0 Z M 27.339844 -16.515625 "/></g></g></g><g fill="#435ebe" fill-opacity="1"><g transform="translate(398.3479, 77.761109)"><g><path d="M 38.101562 -8.757812 L 16.265625 -8.757812 L 16.265625 -17.269531 L 36.222656 -17.269531 L 36.222656 -26.027344 L 16.265625 -26.027344 L 16.265625 -34.410156 L 37.476562 -34.410156 L 37.476562 -43.167969 L 5.003906 -43.167969 L 5.003906 0 L 38.101562 0 Z M 38.101562 -8.757812 "/></g></g></g><g fill="#435ebe" fill-opacity="1"><g transform="translate(438.312223, 77.761109)"><g><path d="M 38.101562 -8.757812 L 16.265625 -8.757812 L 16.265625 -17.269531 L 36.222656 -17.269531 L 36.222656 -26.027344 L 16.265625 -26.027344 L 16.265625 -34.410156 L 37.476562 -34.410156 L 37.476562 -43.167969 L 5.003906 -43.167969 L 5.003906 0 L 38.101562 0 Z M 38.101562 -8.757812 "/></g></g></g><g fill="#435ebe" fill-opacity="1"><g transform="translate(478.276546, 77.761109)"><g><path d="M 38.101562 -9.507812 L 16.265625 -9.507812 L 16.265625 -43.167969 L 5.003906 -43.167969 L 5.003906 0 L 38.101562 0 Z M 38.101562 -9.507812 "/></g></g></g><g clip-path="url(#5356b8c853)"><path fill="#435ebe" d="M 12.363281 103.027344 C 12.363281 103.027344 73.90625 58.601562 137.589844 64.15625 C 138.015625 68.855469 140.792969 94.699219 105.320312 112 C 134.167969 81.8125 88.492188 71.324219 12.363281 103.027344 Z M 12.363281 103.027344 " fill-opacity="1" fill-rule="nonzero"/></g><path fill="#1db4df" d="M 63.890625 88.84375 C 63.890625 88.84375 126.257812 79.046875 103.625 109.3125 C 103.625 107.765625 118.824219 85.753906 63.890625 88.84375 Z M 63.890625 88.84375 " fill-opacity="1" fill-rule="nonzero"/><path fill="#1db4df" d="M 29.988281 0.00390625 C 29.988281 0.00390625 55.195312 66.40625 30.042969 84.566406 C 42.703125 78.945312 55.964844 66.066406 92.335938 61.332031 C 87.089844 55.542969 66.101562 29.835938 29.988281 0.00390625 Z M 29.988281 0.00390625 " fill-opacity="1" fill-rule="nonzero"/><path fill="#1db4df" d="M 92.949219 55.449219 C 94.078125 56.707031 94.9375 57.730469 95.558594 58.414062 L 97.410156 60.457031 C 101.644531 59.742188 106.25 59.15625 111.289062 58.75 C 106.332031 52.710938 73.300781 13.839844 38.34375 0.679688 C 38.34375 0.679688 59.328125 18.082031 92.949219 55.449219 Z M 92.949219 55.449219 " fill-opacity="1" fill-rule="nonzero"/></svg>