<svg xmlns="http://www.w3.org/2000/svg" xmlns:xlink="http://www.w3.org/1999/xlink" width="700" zoomAndPan="magnify" viewBox="0 0 525 112.499997" height="150" preserveAspectRatio="xMidYMid meet" version="1.0"><defs><g/><clipPath id="f9a10711c5"><path d="M 12.363281 63 L 138 63 L 138 112 L 12.363281 112 Z M 12.363281 63 " clip-rule="nonzero"/></clipPath></defs><g fill="#435ebe" fill-opacity="1"><g transform="translate(162.916325, 70.204845)"><g><path d="M 26.839844 -42.917969 C 24.648438 -43.167969 23.648438 -43.167969 21.335938 -43.167969 L 5.003906 -43.167969 L 5.003906 0 L 21.335938 0 C 23.648438 0 24.648438 0 26.839844 -0.25 C 36.851562 -1.375 45.109375 -8.632812 45.109375 -22.148438 C 45.109375 -35.660156 36.851562 -41.792969 26.839844 -42.917969 Z M 23.835938 -8.882812 C 22.398438 -8.757812 21.398438 -8.757812 19.769531 -8.757812 L 16.265625 -8.757812 L 16.265625 -34.410156 L 19.769531 -34.410156 C 21.398438 -34.410156 22.398438 -34.410156 23.835938 -34.285156 C 29.46875 -33.785156 33.347656 -29.65625 33.347656 -21.960938 C 33.347656 -14.265625 29.46875 -9.382812 23.835938 -8.882812 Z M 23.835938 -8.882812 "/></g></g></g><g fill="#435ebe" fill-opacity="1"><g transform="translate(209.760258, 70.204845)"><g><path d="M 29.28125 -11.199219 L 32.910156 0 L 45.171875 0 L 29.59375 -43.167969 L 15.828125 -43.167969 L 0.25 0 L 12.199219 0 L 15.828125 -11.199219 Z M 22.585938 -33.222656 L 26.589844 -19.957031 L 18.582031 -19.957031 Z M 22.585938 -33.222656 "/></g></g></g><g fill="#435ebe" fill-opacity="1"><g transform="translate(253.977414, 70.204845)"><g><path d="M 38.664062 -10.511719 C 38.039062 -15.703125 36.414062 -19.019531 31.90625 -20.644531 C 37.664062 -22.335938 40.605469 -25.964844 40.605469 -31.40625 C 40.605469 -39.039062 35.160156 -42.105469 28.90625 -42.855469 C 26.589844 -43.105469 24.835938 -43.167969 22.148438 -43.167969 L 5.003906 -43.167969 L 5.003906 0 L 16.265625 0 L 16.265625 -16.390625 L 18.769531 -16.390625 C 20.019531 -16.390625 21.085938 -16.390625 22.335938 -16.328125 C 25.214844 -16.140625 27.089844 -13.386719 27.652344 -8.632812 C 28.027344 -5.566406 28.652344 -3.066406 29.65625 0 L 41.917969 0 C 40.230469 -2.566406 39.226562 -5.628906 38.664062 -10.511719 Z M 16.265625 -24.523438 L 16.265625 -34.410156 L 20.644531 -34.410156 C 21.835938 -34.410156 22.835938 -34.410156 23.648438 -34.347656 C 26.527344 -34.097656 28.84375 -33.097656 28.84375 -29.46875 C 28.84375 -25.839844 26.214844 -24.835938 23.335938 -24.585938 C 22.523438 -24.523438 21.523438 -24.523438 20.332031 -24.523438 Z M 16.265625 -24.523438 "/></g></g></g><g fill="#435ebe" fill-opacity="1"><g transform="translate(296.631051, 70.204845)"><g><path d="M 27.339844 -16.515625 L 42.542969 -43.167969 L 30.21875 -43.167969 L 22.023438 -26.089844 L 13.515625 -43.167969 L 0.875 -43.167969 L 16.078125 -16.515625 L 16.078125 0 L 27.339844 0 Z M 27.339844 -16.515625 "/></g></g></g><g fill="#435ebe" fill-opacity="1"><g transform="translate(338.096389, 70.204845)"><g><path d="M 38.101562 -8.757812 L 16.265625 -8.757812 L 16.265625 -17.269531 L 36.222656 -17.269531 L 36.222656 -26.027344 L 16.265625 -26.027344 L 16.265625 -34.410156 L 37.476562 -34.410156 L 37.476562 -43.167969 L 5.003906 -43.167969 L 5.003906 0 L 38.101562 0 Z M 38.101562 -8.757812 "/></g></g></g><g fill="#435ebe" fill-opacity="1"><g transform="translate(378.060712, 70.204845)"><g><path d="M 38.101562 -8.757812 L 16.265625 -8.757812 L 16.265625 -17.269531 L 36.222656 -17.269531 L 36.222656 -26.027344 L 16.265625 -26.027344 L 16.265625 -34.410156 L 37.476562 -34.410156 L 37.476562 -43.167969 L 5.003906 -43.167969 L 5.003906 0 L 38.101562 0 Z M 38.101562 -8.757812 "/></g></g></g><g fill="#435ebe" fill-opacity="1"><g transform="translate(418.025035, 70.204845)"><g><path d="M 38.101562 -9.507812 L 16.265625 -9.507812 L 16.265625 -43.167969 L 5.003906 -43.167969 L 5.003906 0 L 38.101562 0 Z M 38.101562 -9.507812 "/></g></g></g><g clip-path="url(#f9a10711c5)"><path fill="#435ebe" d="M 12.363281 103.027344 C 12.363281 103.027344 73.90625 58.601562 137.589844 64.15625 C 138.015625 68.855469 140.792969 94.699219 105.320312 112 C 134.167969 81.8125 88.492188 71.324219 12.363281 103.027344 Z M 12.363281 103.027344 " fill-opacity="1" fill-rule="nonzero"/></g><path fill="#1db4df" d="M 63.890625 88.84375 C 63.890625 88.84375 126.257812 79.046875 103.625 109.3125 C 103.625 107.765625 118.824219 85.753906 63.890625 88.84375 Z M 63.890625 88.84375 " fill-opacity="1" fill-rule="nonzero"/><path fill="#1db4df" d="M 29.988281 0.00390625 C 29.988281 0.00390625 55.195312 66.40625 30.042969 84.566406 C 42.703125 78.945312 55.964844 66.066406 92.335938 61.332031 C 87.089844 55.542969 66.101562 29.835938 29.988281 0.00390625 Z M 29.988281 0.00390625 " fill-opacity="1" fill-rule="nonzero"/><path fill="#1db4df" d="M 92.949219 55.449219 C 94.078125 56.707031 94.9375 57.730469 95.558594 58.414062 L 97.410156 60.457031 C 101.644531 59.742188 106.25 59.15625 111.289062 58.75 C 106.332031 52.710938 73.300781 13.839844 38.34375 0.679688 C 38.34375 0.679688 59.328125 18.082031 92.949219 55.449219 Z M 92.949219 55.449219 " fill-opacity="1" fill-rule="nonzero"/><g fill="#435ebe" fill-opacity="1"><g transform="translate(275.79222, 100.523547)"><g><path d="M 3.71875 -11.359375 L 3.71875 -1.875 L 8.828125 -1.875 L 8.828125 0 L 1.484375 0 L 1.484375 -11.359375 Z M 3.71875 -11.359375 "/></g></g></g><g fill="#435ebe" fill-opacity="1"><g transform="translate(284.999042, 100.523547)"><g><path d="M 4.984375 0.15625 C 4.140625 0.15625 3.398438 -0.015625 2.765625 -0.359375 C 2.128906 -0.703125 1.632812 -1.207031 1.28125 -1.875 C 0.9375 -2.539062 0.765625 -3.34375 0.765625 -4.28125 C 0.765625 -5.226562 0.9375 -6.035156 1.28125 -6.703125 C 1.632812 -7.367188 2.128906 -7.875 2.765625 -8.21875 C 3.398438 -8.5625 4.140625 -8.734375 4.984375 -8.734375 C 5.828125 -8.734375 6.5625 -8.5625 7.1875 -8.21875 C 7.820312 -7.875 8.316406 -7.367188 8.671875 -6.703125 C 9.023438 -6.035156 9.203125 -5.226562 9.203125 -4.28125 C 9.203125 -3.34375 9.023438 -2.539062 8.671875 -1.875 C 8.316406 -1.207031 7.820312 -0.703125 7.1875 -0.359375 C 6.5625 -0.015625 5.828125 0.15625 4.984375 0.15625 Z M 4.984375 -1.65625 C 6.316406 -1.65625 6.984375 -2.53125 6.984375 -4.28125 C 6.984375 -5.1875 6.8125 -5.847656 6.46875 -6.265625 C 6.125 -6.691406 5.628906 -6.90625 4.984375 -6.90625 C 3.648438 -6.90625 2.984375 -6.03125 2.984375 -4.28125 C 2.984375 -2.53125 3.648438 -1.65625 4.984375 -1.65625 Z M 4.984375 -1.65625 "/></g></g></g><g fill="#435ebe" fill-opacity="1"><g transform="translate(294.967915, 100.523547)"><g><path d="M 4.453125 3.640625 C 3.035156 3.640625 1.988281 3.429688 1.3125 3.015625 C 0.632812 2.597656 0.296875 2.019531 0.296875 1.28125 C 0.296875 0.832031 0.441406 0.460938 0.734375 0.171875 C 1.023438 -0.109375 1.4375 -0.300781 1.96875 -0.40625 L 1.96875 -0.5625 C 1.6875 -0.738281 1.476562 -0.9375 1.34375 -1.15625 C 1.21875 -1.375 1.15625 -1.625 1.15625 -1.90625 C 1.15625 -2.59375 1.601562 -3.054688 2.5 -3.296875 L 2.5 -3.453125 C 2.039062 -3.722656 1.691406 -4.050781 1.453125 -4.4375 C 1.222656 -4.832031 1.109375 -5.304688 1.109375 -5.859375 C 1.109375 -6.429688 1.238281 -6.929688 1.5 -7.359375 C 1.757812 -7.796875 2.140625 -8.132812 2.640625 -8.375 C 3.148438 -8.613281 3.757812 -8.734375 4.46875 -8.734375 C 5.1875 -8.734375 5.757812 -8.609375 6.1875 -8.359375 C 6.445312 -8.742188 6.597656 -9.1875 6.640625 -9.6875 L 6.796875 -9.796875 L 8.34375 -9.421875 C 8.300781 -9.003906 8.179688 -8.65625 7.984375 -8.375 C 7.796875 -8.101562 7.5 -7.859375 7.09375 -7.640625 L 7.09375 -7.46875 C 7.582031 -7.039062 7.828125 -6.445312 7.828125 -5.6875 C 7.828125 -5.15625 7.691406 -4.679688 7.421875 -4.265625 C 7.160156 -3.847656 6.773438 -3.515625 6.265625 -3.265625 C 5.765625 -3.023438 5.164062 -2.90625 4.46875 -2.90625 L 4.140625 -2.921875 C 3.929688 -2.929688 3.785156 -2.9375 3.703125 -2.9375 C 3.503906 -2.9375 3.347656 -2.878906 3.234375 -2.765625 C 3.128906 -2.660156 3.078125 -2.523438 3.078125 -2.359375 C 3.078125 -2.179688 3.148438 -2.039062 3.296875 -1.9375 C 3.441406 -1.832031 3.65625 -1.773438 3.9375 -1.765625 L 5.859375 -1.703125 C 7.753906 -1.640625 8.703125 -0.820312 8.703125 0.75 C 8.703125 1.300781 8.5625 1.789062 8.28125 2.21875 C 8 2.65625 7.539062 3 6.90625 3.25 C 6.269531 3.507812 5.453125 3.640625 4.453125 3.640625 Z M 4.46875 -4.421875 C 4.882812 -4.421875 5.207031 -4.539062 5.4375 -4.78125 C 5.675781 -5.019531 5.796875 -5.367188 5.796875 -5.828125 C 5.796875 -6.273438 5.675781 -6.617188 5.4375 -6.859375 C 5.207031 -7.097656 4.882812 -7.21875 4.46875 -7.21875 C 4.050781 -7.21875 3.726562 -7.097656 3.5 -6.859375 C 3.269531 -6.617188 3.15625 -6.273438 3.15625 -5.828125 C 3.15625 -5.367188 3.269531 -5.019531 3.5 -4.78125 C 3.726562 -4.539062 4.050781 -4.421875 4.46875 -4.421875 Z M 4.453125 2.078125 C 5.179688 2.078125 5.710938 1.972656 6.046875 1.765625 C 6.378906 1.554688 6.546875 1.285156 6.546875 0.953125 C 6.546875 0.679688 6.460938 0.484375 6.296875 0.359375 C 6.128906 0.234375 5.859375 0.164062 5.484375 0.15625 L 3.78125 0.078125 C 3.726562 0.078125 3.675781 0.0703125 3.625 0.0625 C 3.570312 0.0625 3.523438 0.0625 3.484375 0.0625 C 3.117188 0.0625 2.84375 0.140625 2.65625 0.296875 C 2.46875 0.453125 2.375 0.664062 2.375 0.9375 C 2.375 1.300781 2.546875 1.582031 2.890625 1.78125 C 3.234375 1.976562 3.753906 2.078125 4.453125 2.078125 Z M 4.453125 2.078125 "/></g></g></g><g fill="#435ebe" fill-opacity="1"><g transform="translate(303.887029, 100.523547)"><g><path d="M 2.3125 -9.59375 C 1.914062 -9.59375 1.597656 -9.710938 1.359375 -9.953125 C 1.117188 -10.191406 1 -10.5 1 -10.875 C 1 -11.238281 1.117188 -11.535156 1.359375 -11.765625 C 1.597656 -12.003906 1.914062 -12.125 2.3125 -12.125 C 2.570312 -12.125 2.800781 -12.066406 3 -11.953125 C 3.195312 -11.847656 3.351562 -11.703125 3.46875 -11.515625 C 3.582031 -11.328125 3.640625 -11.113281 3.640625 -10.875 C 3.640625 -10.625 3.582031 -10.398438 3.46875 -10.203125 C 3.351562 -10.015625 3.195312 -9.863281 3 -9.75 C 2.800781 -9.644531 2.570312 -9.59375 2.3125 -9.59375 Z M 1.234375 0 L 1.234375 -8.578125 L 3.390625 -8.578125 L 3.390625 0 Z M 1.234375 0 "/></g></g></g><g fill="#435ebe" fill-opacity="1"><g transform="translate(308.505992, 100.523547)"><g><path d="M 4.015625 0.15625 C 3.429688 0.15625 2.894531 0.0859375 2.40625 -0.046875 C 1.914062 -0.179688 1.5 -0.367188 1.15625 -0.609375 C 0.8125 -0.847656 0.554688 -1.125 0.390625 -1.4375 L 1.59375 -2.734375 L 1.75 -2.734375 C 2.03125 -2.347656 2.363281 -2.054688 2.75 -1.859375 C 3.144531 -1.671875 3.570312 -1.578125 4.03125 -1.578125 C 4.445312 -1.578125 4.757812 -1.648438 4.96875 -1.796875 C 5.1875 -1.953125 5.296875 -2.171875 5.296875 -2.453125 C 5.296875 -2.671875 5.21875 -2.851562 5.0625 -3 C 4.90625 -3.144531 4.660156 -3.257812 4.328125 -3.34375 L 3.1875 -3.609375 C 2.332031 -3.816406 1.707031 -4.128906 1.3125 -4.546875 C 0.925781 -4.960938 0.734375 -5.492188 0.734375 -6.140625 C 0.734375 -6.671875 0.867188 -7.128906 1.140625 -7.515625 C 1.421875 -7.910156 1.804688 -8.210938 2.296875 -8.421875 C 2.796875 -8.628906 3.375 -8.734375 4.03125 -8.734375 C 4.800781 -8.734375 5.4375 -8.617188 5.9375 -8.390625 C 6.445312 -8.171875 6.847656 -7.878906 7.140625 -7.515625 L 5.984375 -6.265625 L 5.828125 -6.265625 C 5.585938 -6.535156 5.316406 -6.734375 5.015625 -6.859375 C 4.722656 -6.984375 4.394531 -7.046875 4.03125 -7.046875 C 3.175781 -7.046875 2.75 -6.78125 2.75 -6.25 C 2.75 -6.03125 2.828125 -5.847656 2.984375 -5.703125 C 3.140625 -5.566406 3.421875 -5.453125 3.828125 -5.359375 L 4.875 -5.125 C 5.75 -4.9375 6.382812 -4.632812 6.78125 -4.21875 C 7.1875 -3.8125 7.390625 -3.265625 7.390625 -2.578125 C 7.390625 -2.023438 7.253906 -1.539062 6.984375 -1.125 C 6.710938 -0.71875 6.320312 -0.398438 5.8125 -0.171875 C 5.3125 0.046875 4.710938 0.15625 4.015625 0.15625 Z M 4.015625 0.15625 "/></g></g></g><g fill="#435ebe" fill-opacity="1"><g transform="translate(316.414223, 100.523547)"><g><path d="M 5.921875 -2.046875 L 6.46875 -0.453125 C 6.238281 -0.253906 5.945312 -0.101562 5.59375 0 C 5.238281 0.101562 4.84375 0.15625 4.40625 0.15625 C 3.476562 0.15625 2.769531 -0.09375 2.28125 -0.59375 C 1.800781 -1.101562 1.5625 -1.835938 1.5625 -2.796875 L 1.5625 -6.875 L 0.25 -6.875 L 0.25 -8.578125 L 1.5625 -8.578125 L 1.5625 -10.25 L 3.71875 -10.609375 L 3.71875 -8.578125 L 6.15625 -8.578125 L 6.15625 -6.875 L 3.71875 -6.875 L 3.71875 -2.953125 C 3.71875 -2.523438 3.804688 -2.210938 3.984375 -2.015625 C 4.160156 -1.828125 4.414062 -1.734375 4.75 -1.734375 C 5.132812 -1.734375 5.46875 -1.835938 5.75 -2.046875 Z M 5.921875 -2.046875 "/></g></g></g><g fill="#435ebe" fill-opacity="1"><g transform="translate(323.078288, 100.523547)"><g><path d="M 2.3125 -9.59375 C 1.914062 -9.59375 1.597656 -9.710938 1.359375 -9.953125 C 1.117188 -10.191406 1 -10.5 1 -10.875 C 1 -11.238281 1.117188 -11.535156 1.359375 -11.765625 C 1.597656 -12.003906 1.914062 -12.125 2.3125 -12.125 C 2.570312 -12.125 2.800781 -12.066406 3 -11.953125 C 3.195312 -11.847656 3.351562 -11.703125 3.46875 -11.515625 C 3.582031 -11.328125 3.640625 -11.113281 3.640625 -10.875 C 3.640625 -10.625 3.582031 -10.398438 3.46875 -10.203125 C 3.351562 -10.015625 3.195312 -9.863281 3 -9.75 C 2.800781 -9.644531 2.570312 -9.59375 2.3125 -9.59375 Z M 1.234375 0 L 1.234375 -8.578125 L 3.390625 -8.578125 L 3.390625 0 Z M 1.234375 0 "/></g></g></g><g fill="#435ebe" fill-opacity="1"><g transform="translate(327.697251, 100.523547)"><g><path d="M 5 0.15625 C 4.164062 0.15625 3.429688 -0.015625 2.796875 -0.359375 C 2.160156 -0.703125 1.660156 -1.207031 1.296875 -1.875 C 0.941406 -2.539062 0.765625 -3.34375 0.765625 -4.28125 C 0.765625 -5.226562 0.941406 -6.035156 1.296875 -6.703125 C 1.660156 -7.367188 2.15625 -7.875 2.78125 -8.21875 C 3.414062 -8.5625 4.140625 -8.734375 4.953125 -8.734375 C 6.765625 -8.734375 7.925781 -8.078125 8.4375 -6.765625 L 6.953125 -5.71875 L 6.796875 -5.71875 C 6.617188 -6.125 6.390625 -6.421875 6.109375 -6.609375 C 5.828125 -6.804688 5.441406 -6.90625 4.953125 -6.90625 C 4.335938 -6.90625 3.851562 -6.691406 3.5 -6.265625 C 3.15625 -5.835938 2.984375 -5.175781 2.984375 -4.28125 C 2.984375 -3.40625 3.160156 -2.75 3.515625 -2.3125 C 3.867188 -1.875 4.363281 -1.65625 5 -1.65625 C 5.46875 -1.65625 5.863281 -1.78125 6.1875 -2.03125 C 6.507812 -2.289062 6.738281 -2.65625 6.875 -3.125 L 7.046875 -3.140625 L 8.578125 -2.296875 C 8.359375 -1.578125 7.953125 -0.988281 7.359375 -0.53125 C 6.773438 -0.0703125 5.988281 0.15625 5 0.15625 Z M 5 0.15625 "/></g></g></g><g fill="#435ebe" fill-opacity="1"><g transform="translate(336.538605, 100.523547)"><g><path d="M 4.015625 0.15625 C 3.429688 0.15625 2.894531 0.0859375 2.40625 -0.046875 C 1.914062 -0.179688 1.5 -0.367188 1.15625 -0.609375 C 0.8125 -0.847656 0.554688 -1.125 0.390625 -1.4375 L 1.59375 -2.734375 L 1.75 -2.734375 C 2.03125 -2.347656 2.363281 -2.054688 2.75 -1.859375 C 3.144531 -1.671875 3.570312 -1.578125 4.03125 -1.578125 C 4.445312 -1.578125 4.757812 -1.648438 4.96875 -1.796875 C 5.1875 -1.953125 5.296875 -2.171875 5.296875 -2.453125 C 5.296875 -2.671875 5.21875 -2.851562 5.0625 -3 C 4.90625 -3.144531 4.660156 -3.257812 4.328125 -3.34375 L 3.1875 -3.609375 C 2.332031 -3.816406 1.707031 -4.128906 1.3125 -4.546875 C 0.925781 -4.960938 0.734375 -5.492188 0.734375 -6.140625 C 0.734375 -6.671875 0.867188 -7.128906 1.140625 -7.515625 C 1.421875 -7.910156 1.804688 -8.210938 2.296875 -8.421875 C 2.796875 -8.628906 3.375 -8.734375 4.03125 -8.734375 C 4.800781 -8.734375 5.4375 -8.617188 5.9375 -8.390625 C 6.445312 -8.171875 6.847656 -7.878906 7.140625 -7.515625 L 5.984375 -6.265625 L 5.828125 -6.265625 C 5.585938 -6.535156 5.316406 -6.734375 5.015625 -6.859375 C 4.722656 -6.984375 4.394531 -7.046875 4.03125 -7.046875 C 3.175781 -7.046875 2.75 -6.78125 2.75 -6.25 C 2.75 -6.03125 2.828125 -5.847656 2.984375 -5.703125 C 3.140625 -5.566406 3.421875 -5.453125 3.828125 -5.359375 L 4.875 -5.125 C 5.75 -4.9375 6.382812 -4.632812 6.78125 -4.21875 C 7.1875 -3.8125 7.390625 -3.265625 7.390625 -2.578125 C 7.390625 -2.023438 7.253906 -1.539062 6.984375 -1.125 C 6.710938 -0.71875 6.320312 -0.398438 5.8125 -0.171875 C 5.3125 0.046875 4.710938 0.15625 4.015625 0.15625 Z M 4.015625 0.15625 "/></g></g></g></svg>